<?xml version="1.0" encoding="UTF-8" standalone="no" ?>
<!DOCTYPE svg PUBLIC "-//W3C//DTD SVG 1.1//EN" "http://www.w3.org/Graphics/SVG/1.1/DTD/svg11.dtd">
<svg xmlns="http://www.w3.org/2000/svg" xmlns:xlink="http://www.w3.org/1999/xlink" version="1.1" width="1080" height="1920" viewBox="0 0 1080 1920" xml:space="preserve">
<desc>Created with Fabric.js 5.2.4</desc>
<defs>
</defs>
<g transform="matrix(1 0 0 1 540 960)" id="db37b48a-6db4-4194-8dbb-a910174d6075"  >
<rect style="stroke: none; stroke-width: 1; stroke-dasharray: none; stroke-linecap: butt; stroke-dashoffset: 0; stroke-linejoin: miter; stroke-miterlimit: 4; fill: rgb(255,255,255); fill-rule: nonzero; opacity: 1; visibility: hidden;" vector-effect="non-scaling-stroke"  x="-540" y="-960" rx="0" ry="0" width="1080" height="1920" />
</g>
<g transform="matrix(Infinity NaN NaN Infinity 0 0)" id="663bc32f-c50d-4724-a456-cff53ed301bf"  >
</g>
<g transform="matrix(-1.12 0 0 -1.12 540 960)" id="732eddf2-e6ec-476b-91d9-436b6f3f8225"  >
<path style="stroke: rgb(0,0,0); stroke-width: 0; stroke-dasharray: none; stroke-linecap: butt; stroke-dashoffset: 0; stroke-linejoin: miter; stroke-miterlimit: 4; fill: rgb(64,64,62); fill-rule: nonzero; opacity: 1;" vector-effect="non-scaling-stroke"  transform=" translate(-514.95, -855)" d="M 455 1644 C 414 1618 328 1507 239 1368 C 212 1325 190 1289 190 1286 C 190 1283 177 1253 161 1218 C 111 1108 82 1008 64 886 C 49 782 49 752 59 661 C 78 492 132 351 239 191 C 323 63 350 38 397 42 L 435 45 L 435 562 C 435 1071 435 1079 456 1107 C 491 1154 559 1151 585 1100 C 598 1075 600 997 600 555 L 600 40 L 643 40 C 683 40 690 44 731 92 C 785 155 884 316 901 368 C 907 388 918 419 925 435 C 971 543 988 688 972 854 C 948 1107 846 1332 640 1588 C 600 1638 553 1670 518 1670 C 505 1670 476 1658 455 1644 z" stroke-linecap="round" />
</g>
<g transform="matrix(NaN NaN NaN NaN 0 0)"  >
<g style=""   >
</g>
</g>
<g transform="matrix(NaN NaN NaN NaN 0 0)"  >
<g style=""   >
</g>
</g>
</svg>